<svg width="24" height="25" viewBox="0 0 24 25" fill="none" xmlns="http://www.w3.org/2000/svg">
<path d="M9 18.5V6.85537C9 6.37383 9 6.13306 9.0876 5.93778C9.16482 5.76565 9.28917 5.61887 9.44627 5.5144C9.62449 5.39588 9.86198 5.3563 10.337 5.27714L19.137 3.81047C19.7779 3.70364 20.0984 3.65023 20.3482 3.743C20.5674 3.82441 20.7511 3.98005 20.8674 4.18286C21 4.41398 21 4.73889 21 5.3887V16.5M9 18.5C9 20.1568 7.65685 21.5 6 21.5C4.34315 21.5 3 20.1568 3 18.5C3 16.8431 4.34315 15.5 6 15.5C7.65685 15.5 9 16.8431 9 18.5ZM21 16.5C21 18.1568 19.6569 19.5 18 19.5C16.3431 19.5 15 18.1568 15 16.5C15 14.8431 16.3431 13.5 18 13.5C19.6569 13.5 21 14.8431 21 16.5Z" stroke="none" stroke-width="2" stroke-linecap="round" stroke-linejoin="round"/>
</svg>
